<?xml version="1.0" encoding="utf-8"?>
<!-- Generator: Adobe Illustrator 24.0.1, SVG Export Plug-In . SVG Version: 6.00 Build 0)  -->
<svg version="1.1" id="Layer_1" xmlns="http://www.w3.org/2000/svg" xmlns:xlink="http://www.w3.org/1999/xlink" x="0px" y="0px"
	 viewBox="0 0 2311.1 118.5" style="enable-background:new 0 0 2311.1 118.5;" xml:space="preserve">
<style type="text/css">
	.st0{enable-background:new    ;}
	.st1{fill:#FFFFFF;}
</style>
<g class="st0">
	<path class="st1" d="M82,83.7c-3.1,5.8-9,9.6-18.1,9.6c-17.8,0-29.1-13.4-29.1-33.4C34.8,37.3,47.9,24,69.1,24
		c18.4,0,28.2,9.9,30.2,25H80.2c-0.9-6.2-4.7-9.5-11-9.5c-9,0-13.7,7.1-13.7,20.3v1.4c0,12,5.3,18.3,14.3,18.3
		c6.4,0,11.3-3.4,11.8-9.5H70.7V57.3h29.2v34.5H82V83.7z"/>
	<path class="st1" d="M137.1,25.4h22.5l22.6,66.4h-21.5l-4.9-15.3h-20.5l-4.9,15.3h-16.5L137.1,25.4z M138.9,64.6h13.7l-6.5-20.9
		L138.9,64.6z"/>
	<path class="st1" d="M224.2,25.4c19.6,0,28.1,6.9,28.1,21.8c0,13.7-9.3,23.3-29.8,23.3h-5.3v21.3h-20.5V25.4H224.2z M217.2,58.8
		h4.7c8.9-0.4,11-4.7,11-11.6c0-6.6-3.2-9.5-11-9.5h-4.7V58.8z"/>
	<path class="st1" d="M343.7,83.7c-3.1,5.8-9,9.6-18.1,9.6c-17.8,0-29.1-13.4-29.1-33.4c0-22.6,13.1-35.9,34.3-35.9
		c18.4,0,28.2,9.9,30.2,25h-19.1c-0.9-6.2-4.7-9.5-11-9.5c-9,0-13.7,7.1-13.7,20.3v1.4c0,12,5.3,18.3,14.3,18.3
		c6.4,0,11.3-3.4,11.8-9.5h-10.9V57.3h29.2v34.5h-17.9V83.7z"/>
	<path class="st1" d="M376.7,58.7c0-20.7,14.6-34.7,35.7-34.7c20.5,0,34.9,13.8,34.9,34.5s-14.6,34.7-35.7,34.7
		C391.1,93.2,376.7,79.4,376.7,58.7z M425.9,59.6v-2.1c0-12-4.6-18.4-13.9-18.4c-9.2,0-13.9,6.3-13.9,18.5v2.1
		c0,12,4.6,18.4,13.9,18.4C421.3,78.1,425.9,71.8,425.9,59.6z"/>
	<path class="st1" d="M484.3,77.6h26.1v14.2h-46.6V25.4h20.5V77.6z"/>
	<path class="st1" d="M566.8,68.5h-19.5v23.3h-20.5V25.4h50v14.5h-29.5V54h19.5V68.5z"/>
</g>
<g class="st0">
	<path class="st1" d="M659.6,83.7c-3.1,5.8-9,9.6-18.1,9.6c-17.8,0-29.1-13.4-29.1-33.4c0-22.6,13.1-35.9,34.3-35.9
		c18.4,0,28.2,9.9,30.2,25h-19.1c-0.9-6.2-4.7-9.5-11-9.5c-9,0-13.7,7.1-13.7,20.3v1.4c0,12,5.3,18.3,14.3,18.3
		c6.4,0,11.3-3.4,11.8-9.5h-10.9V57.3h29.2v34.5h-17.9V83.7z"/>
	<path class="st1" d="M714.7,25.4h22.5l22.6,66.4h-21.5l-4.9-15.3h-20.5L708,91.8h-16.5L714.7,25.4z M716.5,64.6h13.7l-6.5-20.9
		L716.5,64.6z"/>
	<path class="st1" d="M801.8,25.4c19.6,0,28.1,6.9,28.1,21.8c0,13.7-9.3,23.3-29.8,23.3h-5.3v21.3h-20.5V25.4H801.8z M794.8,58.8
		h4.7c8.9-0.4,11-4.7,11-11.6c0-6.6-3.2-9.5-11-9.5h-4.7V58.8z"/>
	<path class="st1" d="M921.3,83.7c-3.1,5.8-9,9.6-18.1,9.6c-17.8,0-29.1-13.4-29.1-33.4c0-22.6,13.1-35.9,34.3-35.9
		c18.4,0,28.2,9.9,30.2,25h-19.1c-0.9-6.2-4.7-9.5-11-9.5c-9,0-13.7,7.1-13.7,20.3v1.4c0,12,5.3,18.3,14.3,18.3
		c6.4,0,11.3-3.4,11.8-9.5H910V57.3h29.2v34.5h-17.9V83.7z"/>
	<path class="st1" d="M954.3,58.7C954.3,38,968.9,24,990,24c20.5,0,34.9,13.8,34.9,34.5s-14.6,34.7-35.7,34.7
		C968.7,93.2,954.3,79.4,954.3,58.7z M1003.5,59.6v-2.1c0-12-4.6-18.4-13.9-18.4c-9.2,0-13.9,6.3-13.9,18.5v2.1
		c0,12,4.6,18.4,13.9,18.4C998.9,78.1,1003.5,71.8,1003.5,59.6z"/>
	<path class="st1" d="M1061.9,77.6h26.1v14.2h-46.6V25.4h20.5V77.6z"/>
	<path class="st1" d="M1144.4,68.5h-19.5v23.3h-20.5V25.4h50v14.5h-29.5V54h19.5V68.5z"/>
</g>
<g class="st0">
	<path class="st1" d="M1237.2,83.7c-3.1,5.8-9,9.6-18.1,9.6c-17.8,0-29.1-13.4-29.1-33.4c0-22.6,13.1-35.9,34.3-35.9
		c18.4,0,28.2,9.9,30.2,25h-19.1c-0.9-6.2-4.7-9.5-11-9.5c-9,0-13.7,7.1-13.7,20.3v1.4c0,12,5.3,18.3,14.3,18.3
		c6.4,0,11.3-3.4,11.8-9.5h-10.9V57.3h29.2v34.5h-17.9V83.7z"/>
	<path class="st1" d="M1292.3,25.4h22.5l22.6,66.4h-21.5l-4.9-15.3h-20.5l-4.9,15.3h-16.5L1292.3,25.4z M1294.1,64.6h13.7l-6.5-20.9
		L1294.1,64.6z"/>
	<path class="st1" d="M1379.4,25.4c19.6,0,28.1,6.9,28.1,21.8c0,13.7-9.3,23.3-29.8,23.3h-5.3v21.3h-20.5V25.4H1379.4z M1372.4,58.8
		h4.7c8.9-0.4,11-4.7,11-11.6c0-6.6-3.2-9.5-11-9.5h-4.7V58.8z"/>
	<path class="st1" d="M1498.9,83.7c-3.1,5.8-9,9.6-18.1,9.6c-17.8,0-29.1-13.4-29.1-33.4c0-22.6,13.1-35.9,34.3-35.9
		c18.4,0,28.2,9.9,30.2,25h-19.1c-0.9-6.2-4.7-9.5-11-9.5c-9,0-13.7,7.1-13.7,20.3v1.4c0,12,5.3,18.3,14.3,18.3
		c6.4,0,11.3-3.4,11.8-9.5h-10.9V57.3h29.2v34.5h-17.9V83.7z"/>
	<path class="st1" d="M1531.9,58.7c0-20.7,14.6-34.7,35.7-34.7c20.5,0,34.9,13.8,34.9,34.5s-14.6,34.7-35.7,34.7
		C1546.3,93.2,1531.9,79.4,1531.9,58.7z M1581.1,59.6v-2.1c0-12-4.6-18.4-13.9-18.4c-9.2,0-13.9,6.3-13.9,18.5v2.1
		c0,12,4.6,18.4,13.9,18.4C1576.5,78.1,1581.1,71.8,1581.1,59.6z"/>
	<path class="st1" d="M1639.5,77.6h26.1v14.2H1619V25.4h20.5V77.6z"/>
	<path class="st1" d="M1722,68.5h-19.5v23.3H1682V25.4h50v14.5h-29.5V54h19.5V68.5z"/>
</g>
<g class="st0">
	<path class="st1" d="M1814.8,83.7c-3.1,5.8-9,9.6-18.1,9.6c-17.8,0-29.1-13.4-29.1-33.4c0-22.6,13.1-35.9,34.3-35.9
		c18.4,0,28.2,9.9,30.2,25H1813c-0.9-6.2-4.7-9.5-11-9.5c-9,0-13.7,7.1-13.7,20.3v1.4c0,12,5.3,18.3,14.3,18.3
		c6.4,0,11.3-3.4,11.8-9.5h-10.9V57.3h29.2v34.5h-17.9V83.7z"/>
	<path class="st1" d="M1869.9,25.4h22.5l22.6,66.4h-21.5l-4.9-15.3h-20.5l-4.9,15.3h-16.5L1869.9,25.4z M1871.7,64.6h13.7l-6.5-20.9
		L1871.7,64.6z"/>
	<path class="st1" d="M1957,25.4c19.6,0,28.1,6.9,28.1,21.8c0,13.7-9.3,23.3-29.8,23.3h-5.3v21.3h-20.5V25.4H1957z M1950,58.8h4.7
		c8.9-0.4,11-4.7,11-11.6c0-6.6-3.2-9.5-11-9.5h-4.7V58.8z"/>
	<path class="st1" d="M2076.5,83.7c-3.1,5.8-9,9.6-18.1,9.6c-17.8,0-29.1-13.4-29.1-33.4c0-22.6,13.1-35.9,34.3-35.9
		c18.4,0,28.2,9.9,30.2,25h-19.1c-0.9-6.2-4.7-9.5-11-9.5c-9,0-13.7,7.1-13.7,20.3v1.4c0,12,5.3,18.3,14.3,18.3
		c6.4,0,11.3-3.4,11.8-9.5h-10.9V57.3h29.2v34.5h-17.9V83.7z"/>
	<path class="st1" d="M2109.5,58.7c0-20.7,14.6-34.7,35.7-34.7c20.5,0,34.9,13.8,34.9,34.5s-14.6,34.7-35.7,34.7
		C2123.9,93.2,2109.5,79.4,2109.5,58.7z M2158.7,59.6v-2.1c0-12-4.6-18.4-13.9-18.4c-9.2,0-13.9,6.3-13.9,18.5v2.1
		c0,12,4.6,18.4,13.9,18.4C2154.1,78.1,2158.7,71.8,2158.7,59.6z"/>
	<path class="st1" d="M2217.1,77.6h26.1v14.2h-46.6V25.4h20.5V77.6z"/>
	<path class="st1" d="M2299.6,68.5h-19.5v23.3h-20.5V25.4h50v14.5h-29.5V54h19.5V68.5z"/>
</g>
</svg>
