<?xml version="1.0" encoding="utf-8"?>
<!-- Generator: Adobe Illustrator 24.0.1, SVG Export Plug-In . SVG Version: 6.00 Build 0)  -->
<svg version="1.1" id="Layer_1" xmlns="http://www.w3.org/2000/svg" xmlns:xlink="http://www.w3.org/1999/xlink" x="0px" y="0px"
	 viewBox="0 0 3417.5 118.5" style="enable-background:new 0 0 3417.5 118.5;" xml:space="preserve">
<style type="text/css">
	.st0{fill:#0D4E4A;}
	.st1{enable-background:new    ;}
	.st2{fill:#FFFFFF;}
</style>
<rect x="-1.1" y="-0.3" class="st0" width="3416.9" height="124.6"/>
<g class="st1">
	<path class="st2" d="M33.2,25.4h19.7l8.9,39l10.7-39H90l10.8,38.9l8.9-38.9h16.4l-18.2,66.4H91.3L79.7,51.4L68.4,91.8H51.2
		L33.2,25.4z"/>
	<path class="st2" d="M180.1,65.5h-19v11.8h32.7v14.5H141V25.4h52v14.2h-31.9V51h19V65.5z"/>
	<path class="st2" d="M240.5,25.4c18.3,0,26,5.5,26,17.3c0,6.5-3.4,11-9.7,13.6c8,2.7,12.4,8.1,12.4,16.1c0,13.6-8.2,19.4-29.3,19.4
		h-29.3V25.4H240.5z M230.5,52.5h6.4c6.6,0,9.4-2.4,9.4-7.2c0.2-4.9-2.2-7.4-7.7-7.4h-8.1V52.5z M238.2,79.3c6.7,0,10-2.4,10-8
		c0.1-5.7-2.9-8.4-9.6-8.4h-8.1v16.4H238.2z"/>
	<path class="st2" d="M282.4,70h16.8c1.3,6.5,5.2,10,13.9,10c5.2,0,8.3-2.4,8.3-6.2c0-3.9-6.4-5.1-14.1-6.9
		c-10.7-2.5-23.5-6.5-23.5-20.2c0-13.4,11.8-22.7,28.5-22.7c18.1,0,27.5,9.1,28.5,22.9h-16.5c-1.1-6.5-4.2-9.8-12.1-9.8
		c-4.9,0-8,2.5-8,6.3c0,4.5,7.1,5.5,15.2,7.3c10.5,2.4,22.5,6.1,22.5,19.9S331,93.1,313.3,93.1C293.9,93.1,283.7,82.5,282.4,70z"/>
	<path class="st2" d="M378.6,91.8h-20.5V25.4h20.5V91.8z"/>
	<path class="st2" d="M449.5,40.1h-17.3v51.7h-20.5V40.1h-17.3V25.4h55.1V40.1z"/>
	<path class="st2" d="M504.1,65.5h-19v11.8h32.7v14.5H465V25.4h52v14.2h-31.9V51h19V65.5z"/>
	<path class="st2" d="M564.9,25.4h29.3c20,0,35,9.1,35,33.4c0,23.5-15.8,33-36,33h-28.3V25.4z M585.5,78.3h7
		c11.2,0,15.7-5.2,15.7-19.4v-0.4c0-14.4-4.4-19.5-15.5-19.5h-7.2V78.3z"/>
	<path class="st2" d="M684.9,65.5h-19v11.8h32.7v14.5h-52.8V25.4h52v14.2h-31.9V51h19V65.5z"/>
	<path class="st2" d="M711.3,70h16.8c1.3,6.5,5.2,10,13.9,10c5.2,0,8.3-2.4,8.3-6.2c0-3.9-6.4-5.1-14.1-6.9
		c-10.7-2.5-23.5-6.5-23.5-20.2c0-13.4,11.8-22.7,28.5-22.7c18.1,0,27.5,9.1,28.5,22.9h-16.5c-1.1-6.5-4.2-9.8-12.1-9.8
		c-4.9,0-8,2.5-8,6.3c0,4.5,7.1,5.5,15.2,7.3c10.5,2.4,22.5,6.1,22.5,19.9S760,93.1,742.2,93.1C722.8,93.1,712.6,82.5,711.3,70z"/>
	<path class="st2" d="M807.5,91.8H787V25.4h20.5V91.8z"/>
	<path class="st2" d="M871.1,83.7c-3.1,5.8-9,9.6-18.1,9.6c-17.8,0-29.1-13.4-29.1-33.4c0-22.6,13.1-35.9,34.3-35.9
		c18.4,0,28.2,9.9,30.2,25h-19.1c-0.9-6.2-4.7-9.5-11-9.5c-9,0-13.7,7.1-13.7,20.3v1.4c0,12,5.3,18.3,14.3,18.3
		c6.4,0,11.3-3.4,11.8-9.5h-10.9V57.3h29.2v34.5h-17.9V83.7z"/>
	<path class="st2" d="M952.9,62.3V25.4h16v66.4h-19.5l-26.9-42.1v42.1h-16V25.4H929L952.9,62.3z"/>
	<path class="st2" d="M985.6,105.7c4.3-3,7-8.7,7.2-16h-6.6V73.3h19.2v13.8c0,10.6-3.7,18.4-18.7,20.8L985.6,105.7z"/>
	<path class="st2" d="M1070.4,25.4h22.5l22.6,66.4H1094l-4.9-15.3h-20.5l-4.9,15.3h-16.5L1070.4,25.4z M1072.2,64.6h13.7l-6.5-20.9
		L1072.2,64.6z"/>
	<path class="st2" d="M1157.5,25.4c19.6,0,28.1,6.9,28.1,21.8c0,13.7-9.3,23.3-29.8,23.3h-5.3v21.3H1130V25.4H1157.5z M1150.5,58.8
		h4.7c8.9-0.4,11-4.7,11-11.6c0-6.6-3.2-9.5-11-9.5h-4.7V58.8z"/>
	<path class="st2" d="M1228.9,25.4c19.6,0,28.1,6.9,28.1,21.8c0,13.7-9.3,23.3-29.8,23.3h-5.3v21.3h-20.5V25.4H1228.9z M1221.9,58.8
		h4.7c8.9-0.4,11-4.7,11-11.6c0-6.6-3.2-9.5-11-9.5h-4.7V58.8z"/>
	<path class="st2" d="M1302.7,25.4h29.3c20,0,35,9.1,35,33.4c0,23.5-15.8,33-36,33h-28.3V25.4z M1323.2,78.3h7
		c11.2,0,15.7-5.2,15.7-19.4v-0.4c0-14.4-4.4-19.5-15.5-19.5h-7.2V78.3z"/>
	<path class="st2" d="M1422.6,65.5h-19v11.8h32.7v14.5h-52.8V25.4h52v14.2h-31.9V51h19V65.5z"/>
	<path class="st2" d="M1449.1,70h16.8c1.3,6.5,5.2,10,13.9,10c5.2,0,8.3-2.4,8.3-6.2c0-3.9-6.4-5.1-14.1-6.9
		c-10.7-2.5-23.5-6.5-23.5-20.2c0-13.4,11.8-22.7,28.5-22.7c18.1,0,27.5,9.1,28.5,22.9H1491c-1.1-6.5-4.2-9.8-12.1-9.8
		c-4.9,0-8,2.5-8,6.3c0,4.5,7.1,5.5,15.2,7.3c10.5,2.4,22.5,6.1,22.5,19.9s-10.9,22.5-28.6,22.5C1460.6,93.1,1450.4,82.5,1449.1,70z
		"/>
	<path class="st2" d="M1545.3,91.8h-20.5V25.4h20.5V91.8z"/>
	<path class="st2" d="M1608.9,83.7c-3.1,5.8-9,9.6-18.1,9.6c-17.8,0-29.1-13.4-29.1-33.4c0-22.6,13.1-35.9,34.3-35.9
		c18.4,0,28.2,9.9,30.2,25h-19.1c-0.9-6.2-4.7-9.5-11-9.5c-9,0-13.7,7.1-13.7,20.3v1.4c0,12,5.3,18.3,14.3,18.3
		c6.4,0,11.3-3.4,11.8-9.5h-10.9V57.3h29.2v34.5h-17.9V83.7z"/>
	<path class="st2" d="M1690.7,62.3V25.4h16v66.4h-19.5l-26.9-42.1v42.1h-16V25.4h22.5L1690.7,62.3z"/>
</g>
<g class="st1">
	<path class="st2" d="M1741.6,25.4h19.7l8.9,39l10.7-39h17.5l10.8,38.9l8.9-38.9h16.4l-18.2,66.4h-16.6l-11.6-40.4l-11.3,40.4h-17.2
		L1741.6,25.4z"/>
	<path class="st2" d="M1888.5,65.5h-19v11.8h32.7v14.5h-52.8V25.4h52v14.2h-31.9V51h19V65.5z"/>
	<path class="st2" d="M1948.9,25.4c18.3,0,26,5.5,26,17.3c0,6.5-3.4,11-9.7,13.6c8,2.7,12.4,8.1,12.4,16.1
		c0,13.6-8.2,19.4-29.3,19.4H1919V25.4H1948.9z M1938.9,52.5h6.4c6.6,0,9.4-2.4,9.4-7.2c0.2-4.9-2.2-7.4-7.7-7.4h-8.1V52.5z
		 M1946.6,79.3c6.7,0,10-2.4,10-8c0.1-5.7-2.9-8.4-9.6-8.4h-8.1v16.4H1946.6z"/>
	<path class="st2" d="M1990.8,70h16.8c1.3,6.5,5.2,10,13.9,10c5.2,0,8.3-2.4,8.3-6.2c0-3.9-6.4-5.1-14.1-6.9
		c-10.7-2.5-23.5-6.5-23.5-20.2c0-13.4,11.8-22.7,28.5-22.7c18.1,0,27.5,9.1,28.5,22.9h-16.5c-1.1-6.5-4.2-9.8-12.1-9.8
		c-4.9,0-8,2.5-8,6.3c0,4.5,7.1,5.5,15.2,7.3c10.5,2.4,22.5,6.1,22.5,19.9s-10.9,22.5-28.6,22.5C2002.3,93.1,1992.1,82.5,1990.8,70z
		"/>
	<path class="st2" d="M2087,91.8h-20.5V25.4h20.5V91.8z"/>
	<path class="st2" d="M2157.9,40.1h-17.3v51.7h-20.5V40.1h-17.3V25.4h55.1V40.1z"/>
	<path class="st2" d="M2212.5,65.5h-19v11.8h32.7v14.5h-52.8V25.4h52v14.2h-31.9V51h19V65.5z"/>
	<path class="st2" d="M2273.4,25.4h29.3c20,0,35,9.1,35,33.4c0,23.5-15.8,33-36,33h-28.3V25.4z M2293.9,78.3h7
		c11.2,0,15.7-5.2,15.7-19.4v-0.4c0-14.4-4.4-19.5-15.5-19.5h-7.2V78.3z"/>
	<path class="st2" d="M2393.3,65.5h-19v11.8h32.7v14.5h-52.8V25.4h52v14.2h-31.9V51h19V65.5z"/>
	<path class="st2" d="M2419.8,70h16.8c1.3,6.5,5.2,10,13.9,10c5.2,0,8.3-2.4,8.3-6.2c0-3.9-6.4-5.1-14.1-6.9
		c-10.7-2.5-23.5-6.5-23.5-20.2c0-13.4,11.8-22.7,28.5-22.7c18.1,0,27.5,9.1,28.5,22.9h-16.5c-1.1-6.5-4.2-9.8-12.1-9.8
		c-4.9,0-8,2.5-8,6.3c0,4.5,7.1,5.5,15.2,7.3c10.5,2.4,22.5,6.1,22.5,19.9s-10.9,22.5-28.6,22.5C2431.3,93.1,2421.1,82.5,2419.8,70z
		"/>
	<path class="st2" d="M2516,91.8h-20.5V25.4h20.5V91.8z"/>
	<path class="st2" d="M2579.6,83.7c-3.1,5.8-9,9.6-18.1,9.6c-17.8,0-29.1-13.4-29.1-33.4c0-22.6,13.1-35.9,34.3-35.9
		c18.4,0,28.2,9.9,30.2,25h-19.1c-0.9-6.2-4.7-9.5-11-9.5c-9,0-13.7,7.1-13.7,20.3v1.4c0,12,5.3,18.3,14.3,18.3
		c6.4,0,11.3-3.4,11.8-9.5h-10.9V57.3h29.2v34.5h-17.9V83.7z"/>
	<path class="st2" d="M2661.4,62.3V25.4h16v66.4h-19.5L2631,49.7v42.1h-16V25.4h22.5L2661.4,62.3z"/>
	<path class="st2" d="M2694.1,105.7c4.3-3,7-8.7,7.2-16h-6.6V73.3h19.2v13.8c0,10.6-3.7,18.4-18.7,20.8L2694.1,105.7z"/>
	<path class="st2" d="M2778.9,25.4h22.5l22.6,66.4h-21.5l-4.9-15.3h-20.5l-4.9,15.3h-16.5L2778.9,25.4z M2780.7,64.6h13.7l-6.5-20.9
		L2780.7,64.6z"/>
	<path class="st2" d="M2866,25.4c19.6,0,28.1,6.9,28.1,21.8c0,13.7-9.3,23.3-29.8,23.3h-5.3v21.3h-20.5V25.4H2866z M2859,58.8h4.7
		c8.9-0.4,11-4.7,11-11.6c0-6.6-3.2-9.5-11-9.5h-4.7V58.8z"/>
	<path class="st2" d="M2937.4,25.4c19.6,0,28.1,6.9,28.1,21.8c0,13.7-9.3,23.3-29.8,23.3h-5.3v21.3h-20.5V25.4H2937.4z M2930.4,58.8
		h4.7c8.9-0.4,11-4.7,11-11.6c0-6.6-3.2-9.5-11-9.5h-4.7V58.8z"/>
	<path class="st2" d="M3011.2,25.4h29.3c20,0,35,9.1,35,33.4c0,23.5-15.8,33-36,33h-28.3V25.4z M3031.7,78.3h7
		c11.2,0,15.7-5.2,15.7-19.4v-0.4c0-14.4-4.4-19.5-15.5-19.5h-7.2V78.3z"/>
	<path class="st2" d="M3131.1,65.5h-19v11.8h32.7v14.5H3092V25.4h52v14.2h-31.9V51h19V65.5z"/>
	<path class="st2" d="M3157.6,70h16.8c1.3,6.5,5.2,10,13.9,10c5.2,0,8.3-2.4,8.3-6.2c0-3.9-6.4-5.1-14.1-6.9
		c-10.7-2.5-23.5-6.5-23.5-20.2c0-13.4,11.8-22.7,28.5-22.7c18.1,0,27.5,9.1,28.5,22.9h-16.5c-1.1-6.5-4.2-9.8-12.1-9.8
		c-4.9,0-8,2.5-8,6.3c0,4.5,7.1,5.5,15.2,7.3c10.5,2.4,22.5,6.1,22.5,19.9s-10.9,22.5-28.6,22.5C3169.1,93.1,3158.9,82.5,3157.6,70z
		"/>
	<path class="st2" d="M3253.8,91.8h-20.5V25.4h20.5V91.8z"/>
	<path class="st2" d="M3317.4,83.7c-3.1,5.8-9,9.6-18.1,9.6c-17.8,0-29.1-13.4-29.1-33.4c0-22.6,13.1-35.9,34.3-35.9
		c18.4,0,28.2,9.9,30.2,25h-19.1c-0.9-6.2-4.7-9.5-11-9.5c-9,0-13.7,7.1-13.7,20.3v1.4c0,12,5.3,18.3,14.3,18.3
		c6.4,0,11.3-3.4,11.8-9.5h-10.9V57.3h29.2v34.5h-17.9V83.7z"/>
	<path class="st2" d="M3399.2,62.3V25.4h16v66.4h-19.5l-26.9-42.1v42.1h-16V25.4h22.5L3399.2,62.3z"/>
</g>
</svg>
