<?xml version="1.0" encoding="utf-8"?>
<!-- Generator: Adobe Illustrator 24.0.1, SVG Export Plug-In . SVG Version: 6.00 Build 0)  -->
<svg version="1.1" id="Layer_1" xmlns="http://www.w3.org/2000/svg" xmlns:xlink="http://www.w3.org/1999/xlink" x="0px" y="0px"
	 viewBox="0 0 1802.5 112.1" style="enable-background:new 0 0 1802.5 112.1;" xml:space="preserve">
<g>
	<path d="M86.5,33.7H69.2v51.7H48.7V33.7H31.4V19h55.1V33.7z"/>
	<path d="M141.1,59.1h-19v11.8h32.7v14.5H102V19h52v14.2h-31.9v11.4h19V59.1z"/>
	<path d="M191.2,19h22.5l22.6,66.4h-21.5l-4.9-15.3h-20.5l-4.9,15.3H168L191.2,19z M193,58.2h13.7l-6.5-20.9L193,58.2z"/>
	<path d="M290.9,53.5l9.3-34.5h30.6v66.4h-20.1V34l-14.8,51.4h-14.8l-14.4-51.1v51.1h-16V19h31L290.9,53.5z"/>
	<path d="M419.3,53.5l9.3-34.5h30.6v66.4h-20.1V34l-14.8,51.4h-14.8l-14.4-51.1v51.1h-16V19h31L419.3,53.5z"/>
	<path d="M496.7,19h22.5l22.6,66.4h-21.5l-4.9-15.3h-20.5L490,85.4h-16.5L496.7,19z M498.5,58.2h13.7l-6.5-20.9L498.5,58.2z"/>
	<path d="M598,33.7h-17.3v51.7h-20.5V33.7h-17.3V19H598V33.7z"/>
	<path d="M610.4,52.3c0-21.2,13.6-34.7,33.8-34.7c17.7,0,28.6,9.8,31,26.4h-17.6c-1.4-6.8-5.8-10.8-12.8-10.8c-9,0-13.2,6-13.2,18v2
		c0,12,4.1,18,12.8,18c7.5,0,12-3.6,13.2-12.5h18c-1.3,19.7-14.1,28.1-31.8,28.1C623.6,86.8,610.4,73.4,610.4,52.3z"/>
	<path d="M752.2,85.4h-20.5V58.6h-19.8v26.8h-20.5V19h20.5v25.8h19.8V19h20.5V85.4z"/>
	<path d="M809.3,59.1h-19v11.8H823v14.5h-52.8V19h52v14.2h-31.9v11.4h19V59.1z"/>
	<path d="M835.8,63.6h16.8c1.3,6.5,5.2,10,13.9,10c5.2,0,8.3-2.4,8.3-6.2c0-3.9-6.4-5.1-14.1-6.9C850,58,837.2,54,837.2,40.3
		c0-13.4,11.8-22.7,28.5-22.7c18.1,0,27.5,9.1,28.5,22.9h-16.5c-1.1-6.5-4.2-9.8-12.1-9.8c-4.9,0-8,2.5-8,6.3
		c0,4.5,7.1,5.5,15.2,7.3c10.5,2.4,22.5,6.1,22.5,19.9s-10.9,22.5-28.6,22.5C847.3,86.7,837.1,76.1,835.8,63.6z"/>
</g>
<g>
	<path d="M981.8,33.7h-17.3v51.7H944V33.7h-17.3V19h55.1V33.7z"/>
	<path d="M1036.4,59.1h-19v11.8h32.7v14.5h-52.8V19h52v14.2h-31.9v11.4h19V59.1z"/>
	<path d="M1086.5,19h22.5l22.6,66.4h-21.5l-4.9-15.3h-20.5l-4.9,15.3h-16.5L1086.5,19z M1088.3,58.2h13.7l-6.5-20.9L1088.3,58.2z"/>
	<path d="M1186.2,53.5l9.3-34.5h30.6v66.4H1206V34l-14.8,51.4h-14.8L1162,34.3v51.1h-16V19h31L1186.2,53.5z"/>
	<path d="M1314.6,53.5l9.3-34.5h30.6v66.4h-20.1V34l-14.8,51.4h-14.8l-14.4-51.1v51.1h-16V19h31L1314.6,53.5z"/>
	<path d="M1392,19h22.5l22.6,66.4h-21.5l-4.9-15.3h-20.5l-4.9,15.3h-16.5L1392,19z M1393.8,58.2h13.7l-6.5-20.9L1393.8,58.2z"/>
	<path d="M1493.3,33.7H1476v51.7h-20.5V33.7h-17.3V19h55.1V33.7z"/>
	<path d="M1505.7,52.3c0-21.2,13.6-34.7,33.8-34.7c17.7,0,28.6,9.8,31,26.4h-17.6c-1.4-6.8-5.8-10.8-12.8-10.8c-9,0-13.2,6-13.2,18
		v2c0,12,4.1,18,12.8,18c7.5,0,12-3.6,13.2-12.5h18c-1.3,19.7-14.1,28.1-31.8,28.1C1518.9,86.8,1505.7,73.4,1505.7,52.3z"/>
	<path d="M1647.5,85.4H1627V58.6h-19.8v26.8h-20.5V19h20.5v25.8h19.8V19h20.5V85.4z"/>
	<path d="M1704.6,59.1h-19v11.8h32.7v14.5h-52.8V19h52v14.2h-31.9v11.4h19V59.1z"/>
	<path d="M1731.1,63.6h16.8c1.3,6.5,5.2,10,13.9,10c5.2,0,8.3-2.4,8.3-6.2c0-3.9-6.4-5.1-14.1-6.9c-10.7-2.5-23.5-6.5-23.5-20.2
		c0-13.4,11.8-22.7,28.5-22.7c18.1,0,27.5,9.1,28.5,22.9H1773c-1.1-6.5-4.2-9.8-12.1-9.8c-4.9,0-8,2.5-8,6.3c0,4.5,7.1,5.5,15.2,7.3
		c10.5,2.4,22.5,6.1,22.5,19.9s-10.9,22.5-28.6,22.5C1742.6,86.7,1732.4,76.1,1731.1,63.6z"/>
</g>
</svg>
