<?xml version="1.0" encoding="utf-8"?>
<!-- Generator: Adobe Illustrator 24.0.1, SVG Export Plug-In . SVG Version: 6.00 Build 0)  -->
<svg version="1.1" id="Layer_1" xmlns="http://www.w3.org/2000/svg" xmlns:xlink="http://www.w3.org/1999/xlink" x="0px" y="0px"
	 viewBox="0 0 1770.9 151.3" style="enable-background:new 0 0 1770.9 151.3;" xml:space="preserve">
<g>
	<path d="M55.1,57.2H37.8v51.7H17.3V57.2H0V42.4h55.1V57.2z"/>
	<path d="M109.7,82.6h-19v11.8h32.7v14.5H70.6V42.4h52v14.2H90.7v11.4h19V82.6z"/>
	<path d="M159.8,42.4h22.5l22.6,66.4h-21.5l-4.9-15.3H158l-4.9,15.3h-16.5L159.8,42.4z M161.6,81.7h13.7l-6.5-20.9L161.6,81.7z"/>
	<path d="M259.5,77l9.3-34.5h30.6v66.4h-20.1V57.5l-14.8,51.4h-14.8l-14.4-51.1v51.1h-16V42.4h31L259.5,77z"/>
	<path d="M387.9,77l9.3-34.5h30.6v66.4h-20.1V57.5l-14.8,51.4h-14.8l-14.4-51.1v51.1h-16V42.4h31L387.9,77z"/>
	<path d="M465.3,42.4h22.5l22.6,66.4h-21.5L484,93.6h-20.5l-4.9,15.3h-16.5L465.3,42.4z M467.1,81.7h13.7l-6.5-20.9L467.1,81.7z"/>
	<path d="M566.6,57.2h-17.3v51.7h-20.5V57.2h-17.3V42.4h55.1V57.2z"/>
	<path d="M579,75.8c0-21.2,13.6-34.7,33.8-34.7c17.7,0,28.6,9.8,31,26.4h-17.6c-1.4-6.8-5.8-10.8-12.8-10.8c-9,0-13.2,6-13.2,18v2
		c0,12,4.1,18,12.8,18c7.5,0,12-3.6,13.2-12.5h18c-1.3,19.7-14.1,28.1-31.8,28.1C592.2,110.3,579,96.9,579,75.8z"/>
	<path d="M720.8,108.9h-20.5V82.1h-19.8v26.8H660V42.4h20.5v25.8h19.8V42.4h20.5V108.9z"/>
	<path d="M777.9,82.6h-19v11.8h32.7v14.5h-52.8V42.4h52v14.2h-31.9v11.4h19V82.6z"/>
	<path d="M804.4,87.1h16.8c1.3,6.5,5.2,10,13.9,10c5.2,0,8.3-2.4,8.3-6.2c0-3.9-6.4-5.1-14.1-6.9c-10.7-2.5-23.5-6.5-23.5-20.2
		c0-13.4,11.8-22.7,28.5-22.7c18.1,0,27.5,9.1,28.5,22.9h-16.5c-1.1-6.5-4.2-9.8-12.1-9.8c-4.9,0-8,2.5-8,6.3
		c0,4.5,7.1,5.5,15.2,7.3c10.5,2.4,22.5,6.1,22.5,19.9c0,13.8-10.9,22.5-28.6,22.5C815.9,110.2,805.7,99.6,804.4,87.1z"/>
</g>
<g>
	<path d="M962.1,57.2h-17.3v51.7h-20.5V57.2H907V42.4h55.1V57.2z"/>
	<path d="M1016.7,82.6h-19v11.8h32.7v14.5h-52.8V42.4h52v14.2h-31.9v11.4h19V82.6z"/>
	<path d="M1066.8,42.4h22.5l22.6,66.4h-21.5l-4.9-15.3H1065l-4.9,15.3h-16.5L1066.8,42.4z M1068.6,81.7h13.7l-6.5-20.9L1068.6,81.7z
		"/>
	<path d="M1166.5,77l9.3-34.5h30.6v66.4h-20.1V57.5l-14.8,51.4h-14.8l-14.4-51.1v51.1h-16V42.4h31L1166.5,77z"/>
	<path d="M1294.9,77l9.3-34.5h30.6v66.4h-20.1V57.5l-14.8,51.4h-14.8l-14.4-51.1v51.1h-16V42.4h31L1294.9,77z"/>
	<path d="M1372.3,42.4h22.5l22.6,66.4h-21.5l-4.9-15.3h-20.5l-4.9,15.3h-16.5L1372.3,42.4z M1374.1,81.7h13.7l-6.5-20.9L1374.1,81.7
		z"/>
	<path d="M1473.6,57.2h-17.3v51.7h-20.5V57.2h-17.3V42.4h55.1V57.2z"/>
	<path d="M1486,75.8c0-21.2,13.6-34.7,33.8-34.7c17.7,0,28.6,9.8,31,26.4h-17.6c-1.4-6.8-5.8-10.8-12.8-10.8c-9,0-13.2,6-13.2,18v2
		c0,12,4.1,18,12.8,18c7.5,0,12-3.6,13.2-12.5h18c-1.3,19.7-14.1,28.1-31.8,28.1C1499.2,110.3,1486,96.9,1486,75.8z"/>
	<path d="M1627.8,108.9h-20.5V82.1h-19.8v26.8H1567V42.4h20.5v25.8h19.8V42.4h20.5V108.9z"/>
	<path d="M1684.9,82.6h-19v11.8h32.7v14.5h-52.8V42.4h52v14.2h-31.9v11.4h19V82.6z"/>
	<path d="M1711.4,87.1h16.8c1.3,6.5,5.2,10,13.9,10c5.2,0,8.3-2.4,8.3-6.2c0-3.9-6.4-5.1-14.1-6.9c-10.7-2.5-23.5-6.5-23.5-20.2
		c0-13.4,11.8-22.7,28.5-22.7c18.1,0,27.5,9.1,28.5,22.9h-16.5c-1.1-6.5-4.2-9.8-12.1-9.8c-4.9,0-8,2.5-8,6.3
		c0,4.5,7.1,5.5,15.2,7.3c10.5,2.4,22.5,6.1,22.5,19.9c0,13.8-10.9,22.5-28.6,22.5C1722.9,110.2,1712.7,99.6,1711.4,87.1z"/>
</g>
</svg>
